<svg xmlns="http://www.w3.org/2000/svg" width="65" height="65" viewBox="0 0 65 65">
  <g id="Group_907" data-name="Group 907" transform="translate(-1044 -281)">
    <g id="Group_246" data-name="Group 246" transform="translate(1044 281)">
      <g id="Group_244" data-name="Group 244">
        <circle id="Ellipse_82" data-name="Ellipse 82" cx="32.5" cy="32.5" r="32.5" fill="#0077b7" opacity="0.1"/>
      </g>
    </g>
    <path id="linkedin" d="M23.966,0H2.384A2.384,2.384,0,0,0,0,2.384V23.966A2.384,2.384,0,0,0,2.384,26.35H23.966a2.384,2.384,0,0,0,2.384-2.384V2.384A2.384,2.384,0,0,0,23.966,0ZM8.154,22.752a.694.694,0,0,1-.694.694H4.507a.694.694,0,0,1-.694-.694V10.375a.694.694,0,0,1,.694-.694H7.46a.694.694,0,0,1,.694.694ZM5.984,8.514A2.805,2.805,0,1,1,8.789,5.709,2.805,2.805,0,0,1,5.984,8.514Zm17.6,14.294a.638.638,0,0,1-.638.638H19.778a.638.638,0,0,1-.638-.638V17c0-.866.254-3.8-2.263-3.8-1.953,0-2.349,2-2.428,2.9v6.7a.638.638,0,0,1-.638.638H10.747a.638.638,0,0,1-.638-.638V10.319a.638.638,0,0,1,.638-.638h3.064a.638.638,0,0,1,.638.638V11.4c.724-1.087,1.8-1.925,4.091-1.925,5.074,0,5.044,4.74,5.044,7.344v5.991Z" transform="translate(1063.603 300.087)" fill="#0077b7"/>
  </g>
</svg>
