<svg id="writing" xmlns="http://www.w3.org/2000/svg" width="33.086" height="33.086" viewBox="0 0 33.086 33.086">
  <path id="Path_2980" data-name="Path 2980" d="M280.312,65.933,276.2,61.82l-7.657,7.721,4.113,4.113Zm0,0" transform="translate(-251.222 -57.825)" fill="#2263de"/>
  <path id="Path_2981" data-name="Path 2981" d="M210.409,211.008a.969.969,0,0,0,1.269,1.267l4.923-2.546-3.647-3.647Zm0,0" transform="translate(-196.772 -192.765)" fill="#2263de"/>
  <path id="Path_2982" data-name="Path 2982" d="M414.706,4.4a.969.969,0,0,0,0-1.371L411.965.284a.969.969,0,0,0-1.371,0l-2.34,2.34,4.112,4.112Zm0,0" transform="translate(-381.905)" fill="#2263de"/>
  <path id="Path_2983" data-name="Path 2983" d="M3.408,140.386h.969V145.3a.969.969,0,0,0,1.655.685l5.6-5.6H22.923a2.911,2.911,0,0,0,2.908-2.908v-9.624l-3.058,3.058a2.881,2.881,0,0,1-.928.624l-5.55,2.878a3.061,3.061,0,0,1-1.269.295,2.864,2.864,0,0,1-.836-.137H7.285a.969.969,0,0,1,0-1.939h4.908a2.9,2.9,0,0,1,.154-1.953l2.991-5.809a2.65,2.65,0,0,1,.561-.793L18.977,121H3.408A2.911,2.911,0,0,0,.5,123.908v13.57A2.911,2.911,0,0,0,3.408,140.386Zm0,0" transform="translate(-0.5 -113.181)" fill="#2263de"/>
</svg>
