<svg id="Group_913" data-name="Group 913" xmlns="http://www.w3.org/2000/svg" width="63" height="63" viewBox="0 0 63 63">
  <g id="Group_248" data-name="Group 248">
    <g id="Group_244" data-name="Group 244">
      <circle id="Ellipse_82" data-name="Ellipse 82" cx="31.5" cy="31.5" r="31.5" fill="#fff"/>
    </g>
  </g>
  <path id="tag" d="M0,11.123V2.118A2.118,2.118,0,0,1,2.118,0h9.005a2.118,2.118,0,0,1,1.5.62l9.348,9.348a2.118,2.118,0,0,1,0,2.995l-9.005,9.005a2.118,2.118,0,0,1-2.995,0L.62,12.62A2.118,2.118,0,0,1,0,11.123Zm4.941-8.3A2.118,2.118,0,1,0,7.059,4.941,2.118,2.118,0,0,0,4.941,2.824Z" transform="translate(21.539 21.539)" fill="#f744af"/>
</svg>
