<svg id="chat" xmlns="http://www.w3.org/2000/svg" width="28.941" height="28.941" viewBox="0 0 28.941 28.941">
  <g id="Group_976" data-name="Group 976">
    <path id="Path_2997" data-name="Path 2997" d="M14.471,0A14.488,14.488,0,0,0,0,14.471a14.3,14.3,0,0,0,2.257,7.756L.065,27.7a.9.9,0,0,0,1.176,1.176l5.474-2.192a14.3,14.3,0,0,0,7.756,2.257A14.471,14.471,0,1,0,14.471,0Zm0,27.133a12.483,12.483,0,0,1-7.138-2.209.9.9,0,0,0-.514-.161.9.9,0,0,0-.336.065L2.529,26.413l1.585-3.954a.907.907,0,0,0-.1-.85,12.483,12.483,0,0,1-2.209-7.138A12.662,12.662,0,1,1,14.471,27.133Z"/>
  </g>
</svg>
