<svg xmlns="http://www.w3.org/2000/svg" width="32.53" height="28.941" viewBox="0 0 32.53 28.941">
  <path id="heart" d="M16.265,28.941a1.908,1.908,0,0,1-1.258-.473c-1.314-1.149-2.581-2.229-3.7-3.181l-.006,0A68.8,68.8,0,0,1,3.226,17.7,12.108,12.108,0,0,1,0,9.776,10.167,10.167,0,0,1,2.581,2.832,8.747,8.747,0,0,1,9.087,0,8.182,8.182,0,0,1,14.2,1.764a10.457,10.457,0,0,1,2.066,2.158,10.458,10.458,0,0,1,2.067-2.158A8.182,8.182,0,0,1,23.443,0a8.748,8.748,0,0,1,6.507,2.832,10.167,10.167,0,0,1,2.58,6.944A12.106,12.106,0,0,1,29.3,17.7a68.779,68.779,0,0,1-8.076,7.58c-1.12.954-2.389,2.036-3.706,3.187A1.909,1.909,0,0,1,16.265,28.941ZM9.087,1.906A6.863,6.863,0,0,0,3.981,4.124,8.271,8.271,0,0,0,1.905,9.776a10.188,10.188,0,0,0,2.788,6.71,67.7,67.7,0,0,0,7.845,7.346l.006,0c1.122.956,2.394,2.04,3.718,3.2,1.332-1.16,2.606-2.246,3.73-3.2a67.709,67.709,0,0,0,7.845-7.346,10.188,10.188,0,0,0,2.788-6.71,8.271,8.271,0,0,0-2.076-5.652,6.862,6.862,0,0,0-5.106-2.218A6.32,6.32,0,0,0,19.5,3.272a9.246,9.246,0,0,0-2.2,2.544,1.2,1.2,0,0,1-2.066,0,9.238,9.238,0,0,0-2.2-2.544A6.32,6.32,0,0,0,9.087,1.906Zm0,0"/>
</svg>
