<svg id="send" xmlns="http://www.w3.org/2000/svg" width="28.942" height="28.941" viewBox="0 0 28.942 28.941">
  <g id="Group_977" data-name="Group 977" transform="translate(0 0)">
    <path id="Path_2998" data-name="Path 2998" d="M28.694.249a.848.848,0,0,0-.914-.188L.533,10.96a.848.848,0,0,0-.055,1.55L11.222,17.72l5.211,10.744a.848.848,0,0,0,.763.478h.03a.848.848,0,0,0,.757-.532l10.9-27.246A.848.848,0,0,0,28.694.249ZM2.945,11.821,24.574,3.17,11.684,16.06ZM17.121,26l-4.238-8.739,12.89-12.89Z" transform="translate(0 -0.001)"/>
  </g>
</svg>
