<svg xmlns="http://www.w3.org/2000/svg" width="24.5" height="28" viewBox="0 0 24.5 28">
  <path id="copy" d="M17.5,24.5v2.187A1.312,1.312,0,0,1,16.187,28H1.313A1.312,1.312,0,0,1,0,26.687V6.563A1.312,1.312,0,0,1,1.313,5.25H5.25V21.437A3.066,3.066,0,0,0,8.313,24.5Zm0-18.813V0H8.313A1.312,1.312,0,0,0,7,1.313V21.437A1.312,1.312,0,0,0,8.313,22.75H23.187A1.312,1.312,0,0,0,24.5,21.437V7H18.813A1.316,1.316,0,0,1,17.5,5.687Zm6.616-1.7L20.509.384A1.312,1.312,0,0,0,19.581,0H19.25V5.25H24.5V4.919a1.312,1.312,0,0,0-.384-.928Z" fill="#d3d3d3"/>
</svg>
