<svg id="Group_301" data-name="Group 301" xmlns="http://www.w3.org/2000/svg" width="31.717" height="28" viewBox="0 0 31.717 28">
  <path id="Path_856" data-name="Path 856" d="M23.292,30a7.509,7.509,0,0,0-4.69,1.621,10.683,10.683,0,0,0-2.744,3.3,10.682,10.682,0,0,0-2.744-3.3A7.509,7.509,0,0,0,8.425,30C3.622,30,0,33.928,0,39.138c0,5.628,4.519,9.479,11.359,15.308,1.162.99,2.478,2.112,3.847,3.309a.991.991,0,0,0,1.3,0c1.369-1.2,2.685-2.319,3.848-3.31,6.84-5.829,11.358-9.679,11.358-15.308C31.717,33.928,28.095,30,23.292,30Z" transform="translate(0 -30)" fill="#d3d3d3"/>
</svg>
